# xmcd
#
# Track frame offsets: 
#        300
#        14570
#        41435
#        63039
#        81408
#        94491
#        113834
#        130616
#        144074
#        162231
#        180200
#        196232
#        213506
#        242066
#        279922
#        294942
#        311611
#
# Disc length: 4510 seconds
#
# Revision: 6
# Processed by: cddbd v1.5.2PL0 Copyright (c) Steve Scherf et al.
# Submitted via: ExactAudioCopy v1.0b1
#
DISCID=e3119a11
DTITLE=Blues Company - Damn! Let's Jam
DYEAR=1991
DGENRE=Blues
TTITLE0=She Ain't Got Rhythm
TTITLE1=Silent Nite
TTITLE2=Fool
TTITLE3=Uh Wee Baby
TTITLE4=Overflow
TTITLE5=Tell Me Why
TTITLE6=Bad Dreams
TTITLE7=They Called Him Muddy Waters
TTITLE8=Bad Decision
TTITLE9=Blues 4 Breakfast
TTITLE10=Well, Well, Well
TTITLE11=Intro
TTITLE12=Comin' Home, Baby
TTITLE13=Move On Down The Line
TTITLE14=Dangerous Daddy
TTITLE15=Damn! Let's Jam
TTITLE16=Ev'ryday I Have The Blues
EXTD=Label: in-akustik\nINAK 9009 CD\nEAN/UPC: 4001985090099\nfeat. Lu
EXTD=thern Allison, Stan Webb, Johnny Heartsman, The 'Juke' Horns and 
EXTD=others
EXTT0=
EXTT1=
EXTT2=
EXTT3=
EXTT4=
EXTT5=
EXTT6=
EXTT7=
EXTT8=
EXTT9=
EXTT10=
EXTT11=
EXTT12=
EXTT13=
EXTT14=
EXTT15=
EXTT16=
PLAYORDER=
